<svg xmlns="http://www.w3.org/2000/svg" width="135" height="32" fill="none"><path fill="#FF510E" fill-rule="evenodd" d="M28.035 6.801 14.053 0 .072 6.801l13.981 7.05 7.006-3.533-6.255-1.691a4.4 4.4 0 0 1-.75.063c-.596 0-1.238-.116-1.768-.4-.52-.276-.957-.742-.957-1.365s.436-1.09.957-1.366c.53-.282 1.172-.4 1.768-.4.65 0 1.383.144 1.942.503l9.306 2.517 2.733-1.378Zm-8.74 10.558c1.187.2 2.361.475 3.515.822a3.539 3.539 0 0 1 1.015-3.253v-2.795l-1.683-.455-2.424 1.222a29.35 29.35 0 0 0-.424 4.459Zm-8.592-.26a31.93 31.93 0 0 1 6.702 0 31.69 31.69 0 0 1 .24-3.154l-3.591 1.812-3.592-1.812c.133 1.047.214 2.099.241 3.153ZM.204 20.34c2.467-1.4 5.397-2.436 8.61-2.981h.002a29.344 29.344 0 0 0-.424-4.459L2.508 9.933A13.987 13.987 0 0 0 0 17.945c0 .803.068 1.604.204 2.395Zm21.62 9.317a14.083 14.083 0 0 0 5.609-7.398c-2.287-1.383-5.053-2.415-8.115-2.973.17 3.864 1.075 7.422 2.506 10.371ZM14.054 32c2.12 0 4.214-.48 6.124-1.402-1.62-3.293-2.625-7.28-2.767-11.592a30.127 30.127 0 0 0-6.714 0c-.142 4.313-1.147 8.3-2.767 11.592A14.076 14.076 0 0 0 14.054 32ZM.675 22.259a14.086 14.086 0 0 0 5.608 7.398c1.432-2.95 2.336-6.507 2.507-10.37-3.062.557-5.829 1.59-8.115 2.972ZM14.053 5.832c.681 0 1.285.177 1.66.449L27.02 9.339v5.879a2.39 2.39 0 0 0-1.495 0v-4.386L14.83 7.939a3.666 3.666 0 0 1-.776.08C12.919 8.02 12 7.53 12 6.927s.92-1.093 2.054-1.093Zm14.053 11.645a1.833 1.833 0 1 1-3.665 0 1.833 1.833 0 0 1 3.666 0Z" clip-rule="evenodd"/><path fill="#151515" d="M40.106 25.952V3.648h4.064v18.784h6.657v3.52h-10.72Zm19.201.416c-1.792 0-3.238-.373-4.336-1.12a6.542 6.542 0 0 1-2.4-2.992c-.502-1.248-.752-2.608-.752-4.08 0-1.547.282-2.965.848-4.256.576-1.302 1.413-2.341 2.512-3.12 1.11-.779 2.464-1.168 4.064-1.168 2.39 0 4.058.693 5.008 2.08.95 1.376 1.424 3.328 1.424 5.856 0 .224-.005.506-.016.848-.01.341-.027.634-.048.88h-9.6c.064 1.259.416 2.245 1.056 2.96.65.715 1.621 1.072 2.912 1.072.661 0 1.37-.144 2.128-.432.757-.299 1.317-.656 1.68-1.072l1.28 3.04c-.427.288-1.104.613-2.032.976-.917.352-2.16.528-3.728.528ZM55.979 16.8h5.632c0-1.12-.101-1.974-.304-2.56-.192-.598-.459-1.008-.8-1.232a2.08 2.08 0 0 0-1.168-.336c-1.088 0-1.904.405-2.448 1.216-.544.8-.848 1.77-.912 2.912Zm16.251 9.6c-.981 0-1.797-.219-2.448-.656A4.044 4.044 0 0 1 68.342 24c-.309-.726-.464-1.526-.464-2.4 0-.49.123-1.03.368-1.616.256-.587.704-1.147 1.344-1.68.64-.534 1.542-.97 2.704-1.312 1.163-.341 2.656-.512 4.48-.512v-.736c0-.79-.192-1.445-.576-1.968-.373-.523-1.13-.784-2.272-.784-.832 0-1.648.144-2.448.432-.789.277-1.37.624-1.744 1.04l-1.28-3.072c.64-.438 1.494-.837 2.56-1.2 1.078-.373 2.272-.56 3.584-.56 1.579 0 2.806.24 3.68.72.875.48 1.488 1.162 1.84 2.048.352.874.528 1.904.528 3.088v10.464h-3.424l-.288-2.272c-1.109 1.813-2.677 2.72-4.704 2.72Zm1.696-3.072c.48 0 .992-.192 1.536-.576a4.246 4.246 0 0 0 1.312-1.504v-2.272a1.8 1.8 0 0 0-.352-.032h-.416c-.586 0-1.205.07-1.856.208-.64.128-1.184.357-1.632.688-.448.33-.672.79-.672 1.376 0 .768.171 1.312.512 1.632.342.32.864.48 1.568.48Zm10.288 2.624V10.016h3.616l.192 2.816c.17-.416.432-.859.784-1.328.363-.47.859-.864 1.488-1.184.64-.33 1.461-.496 2.464-.496.31 0 .581.021.816.064s.453.107.656.192l-.896 4.192c-.341-.341-.864-.512-1.568-.512-.821 0-1.493.17-2.016.512-.523.33-.912.704-1.168 1.12-.245.416-.368.736-.368.96v9.6h-4Zm11.972 0V10.016h3.712l.08 2.096c.417-.64.998-1.21 1.745-1.712.746-.512 1.728-.768 2.944-.768 1.621 0 2.826.512 3.616 1.536.789 1.024 1.184 2.443 1.184 4.256v10.528h-4.096V15.776c0-.886-.187-1.6-.56-2.144-.374-.555-.944-.832-1.712-.832-.747 0-1.403.277-1.968.832-.566.544-.848 1.258-.848 2.144v10.176h-4.097Zm16.94 0V1.632h3.904v24.32h-3.904ZM122.581 32l2.592-7.136-5.984-14.848h4.448l2.368 7.104 1.024 3.68 1.024-3.68 2.4-7.104h4.192L126.517 32h-3.936Z"/></svg>